<?xml version="1.0" encoding="UTF-8" standalone="no"?>
<!-- Created with Inkscape (http://www.inkscape.org/) -->

<svg
   width="322.48352"
   height="313.65271"
   viewBox="0 0 85.323768 82.987285"
   version="1.1"
   id="svg1"
   inkscape:version="1.3.2 (091e20ef0f, 2023-11-25)"
   sodipodi:docname="cancer-crabwalk.svg"
   xmlns:inkscape="http://www.inkscape.org/namespaces/inkscape"
   xmlns:sodipodi="http://sodipodi.sourceforge.net/DTD/sodipodi-0.dtd"
   xmlns="http://www.w3.org/2000/svg"
   xmlns:svg="http://www.w3.org/2000/svg">
  <sodipodi:namedview
     id="namedview1"
     pagecolor="#ffffff"
     bordercolor="#000000"
     borderopacity="0.25"
     inkscape:showpageshadow="2"
     inkscape:pageopacity="0.0"
     inkscape:pagecheckerboard="0"
     inkscape:deskcolor="#d1d1d1"
     inkscape:document-units="px"
     inkscape:zoom="2.0929954"
     inkscape:cx="136.40737"
     inkscape:cy="160.77436"
     inkscape:window-width="1920"
     inkscape:window-height="1011"
     inkscape:window-x="0"
     inkscape:window-y="0"
     inkscape:window-maximized="1"
     inkscape:current-layer="layer1"
     showgrid="false" />
  <defs
     id="defs1">
    <inkscape:path-effect
       effect="bspline"
       id="path-effect21"
       is_visible="true"
       lpeversion="1.3"
       weight="33.333333"
       steps="2"
       helper_size="0"
       apply_no_weight="true"
       apply_with_weight="true"
       only_selected="false"
       uniform="false" />
    <inkscape:path-effect
       effect="bspline"
       id="path-effect19"
       is_visible="true"
       lpeversion="1.3"
       weight="33.333333"
       steps="2"
       helper_size="0"
       apply_no_weight="true"
       apply_with_weight="true"
       only_selected="false"
       uniform="false" />
    <inkscape:path-effect
       effect="bspline"
       id="path-effect17"
       is_visible="true"
       lpeversion="1.3"
       weight="33.333333"
       steps="2"
       helper_size="0"
       apply_no_weight="true"
       apply_with_weight="true"
       only_selected="false"
       uniform="false" />
    <inkscape:path-effect
       effect="bspline"
       id="path-effect14"
       is_visible="true"
       lpeversion="1.3"
       weight="33.333333"
       steps="2"
       helper_size="0"
       apply_no_weight="true"
       apply_with_weight="true"
       only_selected="false"
       uniform="false" />
    <inkscape:path-effect
       effect="bspline"
       id="path-effect12"
       is_visible="true"
       lpeversion="1.3"
       weight="33.333333"
       steps="2"
       helper_size="0"
       apply_no_weight="true"
       apply_with_weight="true"
       only_selected="false"
       uniform="false" />
    <inkscape:path-effect
       effect="bspline"
       id="path-effect10"
       is_visible="true"
       lpeversion="1.3"
       weight="33.333333"
       steps="2"
       helper_size="0"
       apply_no_weight="true"
       apply_with_weight="true"
       only_selected="false"
       uniform="false" />
    <inkscape:path-effect
       effect="bspline"
       id="path-effect9"
       is_visible="true"
       lpeversion="1.3"
       weight="33.333333"
       steps="2"
       helper_size="0"
       apply_no_weight="true"
       apply_with_weight="true"
       only_selected="false"
       uniform="false" />
    <inkscape:path-effect
       effect="bspline"
       id="path-effect7"
       is_visible="true"
       lpeversion="1.3"
       weight="33.333333"
       steps="2"
       helper_size="0"
       apply_no_weight="true"
       apply_with_weight="true"
       only_selected="false"
       uniform="false" />
    <inkscape:path-effect
       effect="bspline"
       id="path-effect6"
       is_visible="true"
       lpeversion="1.3"
       weight="33.333333"
       steps="2"
       helper_size="0"
       apply_no_weight="true"
       apply_with_weight="true"
       only_selected="false"
       uniform="false" />
    <inkscape:path-effect
       effect="bspline"
       id="path-effect4"
       is_visible="true"
       lpeversion="1.3"
       weight="33.333333"
       steps="2"
       helper_size="0"
       apply_no_weight="true"
       apply_with_weight="true"
       only_selected="false"
       uniform="false" />
    <inkscape:path-effect
       effect="bspline"
       id="path-effect1"
       is_visible="true"
       lpeversion="1.3"
       weight="33.333333"
       steps="2"
       helper_size="0"
       apply_no_weight="true"
       apply_with_weight="true"
       only_selected="false"
       uniform="false" />
  </defs>
  <g
     inkscape:label="Layer 1"
     inkscape:groupmode="layer"
     id="layer1"
     transform="translate(-54.122921,-60.354513)">
    <path
       style="fill:#ff0000;stroke:#000000;stroke-width:1.35794;stroke-linejoin:round;stroke-dasharray:none;stroke-opacity:1"
       d="m 177.74722,207.62665 c -16.0397,5.00284 -29.85588,4.76457 -36.9804,-7.40362 -7.12452,-12.16819 -7.55734,-36.26533 -1.13115,-51.62603 6.4262,-15.3607 18.62808,-21.44435 35.42364,-16.84678 16.79556,4.59758 36.39907,19.70151 46.21615,29.95817 9.81708,10.25665 9.4275,15.34192 0.1009,23.00679 -9.32659,7.66487 -27.58944,17.90863 -43.62914,22.91147 z"
       id="path1"
       inkscape:path-effect="#path-effect1"
       inkscape:original-d="m 175.52371,212.86777 c -13.81619,-0.23827 -27.63237,-0.47655 -41.44856,-0.71483 -0.43285,-24.0981 -0.86567,-48.19524 -1.29851,-72.29286 13.28523,-6.62378 25.48711,-12.70743 38.63537,-19.26292 20.44286,15.75064 40.04637,30.85457 60.07014,46.28231 -0.38961,5.08557 -0.77919,10.17084 -1.1688,15.25641 -18.26358,10.24417 -36.52643,20.48793 -54.78964,30.73189 z"
       transform="matrix(0.55989093,0,0,0.61989243,-0.64069367,-4.2701107)"
       sodipodi:nodetypes="ccccccc" />
    <ellipse
       style="fill:#ff0000;stroke:#000000;stroke-width:0.800001;stroke-linejoin:round;stroke-dasharray:none;stroke-opacity:1"
       id="path2"
       cx="75.88929"
       cy="89.753822"
       rx="3.4830186"
       ry="2.2361338" />
    <ellipse
       style="fill:#ff0000;stroke:#000000;stroke-width:0.800001;stroke-linejoin:round;stroke-dasharray:none;stroke-opacity:1"
       id="path3"
       cx="76.340347"
       cy="112.98531"
       rx="3.6928146"
       ry="2.1932514" />
    <path
       style="fill:#ff0000;stroke:#000000;stroke-width:1.61365;stroke-linejoin:round;stroke-dasharray:none;stroke-opacity:1"
       d="m 114.30926,167.59285 c -4.3226,4.86449 -8.64521,9.72898 -14.591625,12.40263 -5.946416,2.67365 -13.516346,3.15644 -19.376979,-0.01 -5.860634,-3.16612 -10.011649,-9.98087 -14.162751,-16.79577 0,0 -0.187375,15.48853 -0.187375,15.48853 0,0 -9.977321,-7.20603 -9.977321,-7.20603 -0.648055,9.75012 -1.29611,19.50024 2.426799,26.8172 3.722909,7.31695 11.816458,12.20056 22.595958,7.58406 10.7795,-4.61651 24.244244,-18.73267 37.709264,-32.8491"
       id="path4"
       inkscape:path-effect="#path-effect4"
       inkscape:original-d="m 114.30926,167.59285 c -4.3226,4.86449 -8.64521,9.72898 -12.96781,14.59347 -7.570231,0.48281 -15.140161,0.9656 -22.71024,1.4484 -4.151185,-6.81504 -12.453305,-20.44469 -12.453305,-20.44469 l -0.187375,15.48853 -9.977321,-7.20603 c 0,0 -1.296109,19.50024 -1.944164,29.25035 8.093874,4.8838 16.187423,9.76741 24.281133,14.65112 13.465288,-14.11672 26.930042,-28.23287 40.395052,-42.34931"
       sodipodi:nodetypes="ccccccccc"
       transform="matrix(0.4668843,-0.11096743,0.11843232,0.49829208,7.8850074,48.341137)" />
    <path
       style="fill:#ff0000;stroke:#000000;stroke-width:1.61365;stroke-linejoin:round;stroke-dasharray:none;stroke-opacity:1"
       d="m 114.30926,167.59285 c -4.3226,4.86449 -8.64521,9.72898 -14.591625,12.40263 -5.946416,2.67365 -13.516346,3.15644 -19.376979,-0.01 -5.860634,-3.16612 -10.011649,-9.98087 -14.162751,-16.79577 0,0 -0.187375,15.48853 -0.187375,15.48853 0,0 -9.977321,-7.20603 -9.977321,-7.20603 -0.648055,9.75012 -1.29611,19.50024 2.426799,26.8172 3.722909,7.31695 11.816458,12.20056 22.595958,7.58406 10.7795,-4.61651 24.244244,-18.73267 37.709264,-32.8491"
       id="path5"
       inkscape:path-effect="#path-effect6"
       inkscape:original-d="m 114.30926,167.59285 c -4.3226,4.86449 -8.64521,9.72898 -12.96781,14.59347 -7.570231,0.48281 -15.140161,0.9656 -22.71024,1.4484 -4.151185,-6.81504 -12.453305,-20.44469 -12.453305,-20.44469 l -0.187375,15.48853 -9.977321,-7.20603 c 0,0 -1.296109,19.50024 -1.944164,29.25035 8.093874,4.8838 16.187423,9.76741 24.281133,14.65112 13.465288,-14.11672 26.930042,-28.23287 40.395052,-42.34931"
       sodipodi:nodetypes="ccccccccc"
       transform="matrix(0.43983892,0.19192824,0.20483944,-0.46942733,-4.846744,142.72242)" />
    <path
       style="fill:#ff0000;stroke:#000000;stroke-width:2.38612;stroke-linejoin:round;stroke-dasharray:none;stroke-opacity:1"
       d="m 128.39123,173.40559 c -4.24218,9.35632 -8.48437,18.71265 -15.81614,26.3744 -7.33177,7.66175 -17.752719,13.62868 -28.173873,19.59574 13.892334,-2.33206 27.784673,-4.66411 36.169053,-12.71787 8.38438,-8.05376 11.2607,-21.82867 14.13708,-35.60385"
       id="path6"
       inkscape:path-effect="#path-effect7"
       inkscape:original-d="m 128.39123,173.40559 c -4.24219,9.35632 -8.48437,18.71265 -12.72655,28.06897 -10.42136,5.96718 -31.263463,17.90117 -31.263463,17.90117 0,0 27.784673,-4.66411 41.677003,-6.99617 2.87643,-13.77546 5.75276,-27.55037 8.62913,-41.32555"
       sodipodi:nodetypes="ccccc"
       transform="matrix(0.40363567,0,0,-0.27848683,40.868164,127.60481)" />
    <path
       style="fill:#ff0000;stroke:#000000;stroke-width:2.32111;stroke-linejoin:round;stroke-dasharray:none;stroke-opacity:1"
       d="m 128.39123,173.40559 c -4.24218,9.35632 -8.48437,18.71265 -15.81614,26.3744 -7.33177,7.66175 -17.752719,13.62868 -28.173873,19.59574 13.892334,-2.33206 27.784673,-4.66411 36.169053,-12.71787 8.38438,-8.05376 11.2607,-21.82867 14.13708,-35.60385"
       id="path7"
       inkscape:path-effect="#path-effect9"
       inkscape:original-d="m 128.39123,173.40559 c -4.24219,9.35632 -8.48437,18.71265 -12.72655,28.06897 -10.42136,5.96718 -31.263463,17.90117 -31.263463,17.90117 0,0 27.784673,-4.66411 41.677003,-6.99617 2.87643,-13.77546 5.75276,-27.55037 8.62913,-41.32555"
       sodipodi:nodetypes="ccccc"
       transform="matrix(0.41051099,0,0,0.28937636,38.498969,74.570074)" />
    <path
       style="fill:#ff0000;stroke:#000000;stroke-width:1.68379;stroke-linejoin:round;stroke-dasharray:none;stroke-opacity:1"
       d="m 139.23193,170.06537 c 0.42527,7.35 0.85053,14.70001 1.2758,22.05001 0,0 11.67648,11.19216 16.24463,10.86833 4.56816,-0.32383 13.70446,-0.9715 22.84077,-1.61916 -2.61826,-2.67589 -5.23653,-5.35177 -9.78855,-7.24834 -4.55203,-1.89656 -11.03756,-3.01375 -15.34668,-6.99765 -4.30911,-3.9839 -6.44159,-10.83421 -8.57411,-17.68466"
       id="path9"
       inkscape:path-effect="#path-effect10"
       inkscape:original-d="m 139.23193,170.06537 c 0.42527,7.35 1.2758,22.05001 1.2758,22.05001 l 11.67648,11.19216 c 9.13631,-0.64766 18.27261,-1.29533 27.40892,-1.94299 0,0 -5.23653,-5.35177 -7.85479,-8.02766 -6.48579,-1.11724 -12.97132,-2.23443 -19.45699,-3.35165 -2.13256,-6.85058 -4.26503,-13.70089 -6.39756,-20.55134"
       sodipodi:nodetypes="ccccccc"
       transform="matrix(0.55989093,0,0,0.40318428,18.539007,53.968424)" />
    <path
       style="fill:#ff0000;stroke:#000000;stroke-width:2.22072;stroke-linejoin:round;stroke-dasharray:none;stroke-opacity:1"
       d="m 139.23193,170.06537 c 0.42527,7.35 0.85053,14.70001 1.2758,22.05001 0,0 11.67648,11.19216 11.67648,11.19216 0,0 27.40892,-1.94299 27.40892,-1.94299 -2.61826,-2.67589 -5.23653,-5.35177 -9.78855,-7.24834 -4.55203,-1.89656 -11.03756,-3.01375 -15.34668,-6.99765 -4.30911,-3.9839 -6.44159,-10.83421 -8.57411,-17.68466"
       id="path10"
       inkscape:path-effect="#path-effect12"
       inkscape:original-d="m 139.23193,170.06537 c 0.42527,7.35 1.2758,22.05001 1.2758,22.05001 l 11.67648,11.19216 27.40892,-1.94299 c 0,0 -5.23653,-5.35177 -7.85479,-8.02766 -6.48579,-1.11724 -12.97132,-2.23443 -19.45699,-3.35165 -2.13256,-6.85058 -4.26503,-13.70089 -6.39756,-20.55134"
       sodipodi:nodetypes="ccccccc"
       transform="matrix(0.36182743,-0.11834536,0.18753432,0.29732494,27.916339,85.766057)" />
    <path
       style="fill:#ff0000;stroke:#000000;stroke-width:1.79097;stroke-linejoin:round;stroke-dasharray:none;stroke-opacity:1"
       d="m 139.23193,170.06537 c 0.42527,7.35 0.85053,14.70001 3.00929,20.24041 2.15875,5.54039 6.05083,9.27104 11.39235,9.38897 5.34153,0.11793 12.13215,-3.3768 18.92291,-6.87159 -2.61826,-2.67589 -5.23648,-5.35172 -8.61573,-5.82472 -3.37926,-0.47299 -7.51928,1.25688 -10.65562,-1.30345 -3.13634,-2.56033 -5.26882,-9.41064 -7.40134,-16.26109"
       id="path12"
       inkscape:path-effect="#path-effect14"
       inkscape:original-d="m 139.23193,170.06537 c 0.42527,7.35 0.85053,14.70001 1.2758,22.05001 3.89224,3.73079 7.78432,7.46144 11.67648,11.19216 6.79089,-3.49486 20.37227,-10.48438 20.37227,-10.48438 0,0 -5.23648,-5.35172 -7.85479,-8.02766 -4.1402,1.72995 -8.28022,3.45982 -12.42034,5.18974 -2.13256,-6.85058 -4.26503,-13.70089 -6.39756,-20.55134"
       sodipodi:nodetypes="ccccccc"
       transform="matrix(0.40336708,0.03635531,-0.08190489,0.4872707,81.766362,18.127975)" />
    <path
       style="fill:#ff0000;stroke:#000000;stroke-width:1.64535;stroke-linejoin:round;stroke-dasharray:none;stroke-opacity:1"
       d="m 139.23193,170.06537 c 0.42527,7.35 0.85053,14.70001 1.2758,22.05001 0,0 11.67648,11.19216 16.24463,10.86833 4.56816,-0.32383 13.70446,-0.9715 22.84077,-1.61916 -2.61826,-2.67589 -5.23653,-5.35177 -9.78855,-7.24834 -4.55203,-1.89656 -11.03756,-3.01375 -15.34668,-6.99765 -4.30911,-3.9839 -6.44159,-10.83421 -8.57411,-17.68466"
       id="path14"
       inkscape:path-effect="#path-effect17"
       inkscape:original-d="m 139.23193,170.06537 c 0.42527,7.35 1.2758,22.05001 1.2758,22.05001 l 11.67648,11.19216 c 9.13631,-0.64766 18.27261,-1.29533 27.40892,-1.94299 0,0 -5.23653,-5.35177 -7.85479,-8.02766 -6.48579,-1.11724 -12.97132,-2.23443 -19.45699,-3.35165 -2.13256,-6.85058 -4.26503,-13.70089 -6.39756,-20.55134"
       sodipodi:nodetypes="ccccccc"
       transform="matrix(0.55989093,0,0,-0.42224333,19.870353,152.34946)" />
    <path
       style="fill:#ff0000;stroke:#000000;stroke-width:2.17003;stroke-linejoin:round;stroke-dasharray:none;stroke-opacity:1"
       d="m 139.23193,170.06537 c 0.42527,7.35 0.85053,14.70001 1.2758,22.05001 0,0 11.67648,11.19216 11.67648,11.19216 0,0 27.40892,-1.94299 27.40892,-1.94299 -2.61826,-2.67589 -5.23653,-5.35177 -9.78855,-7.24834 -4.55203,-1.89656 -11.03756,-3.01375 -15.34668,-6.99765 -4.30911,-3.9839 -6.44159,-10.83421 -8.57411,-17.68466"
       id="path15"
       inkscape:path-effect="#path-effect19"
       inkscape:original-d="m 139.23193,170.06537 c 0.42527,7.35 1.2758,22.05001 1.2758,22.05001 l 11.67648,11.19216 27.40892,-1.94299 c 0,0 -5.23653,-5.35177 -7.85479,-8.02766 -6.48579,-1.11724 -12.97132,-2.23443 -19.45699,-3.35165 -2.13256,-6.85058 -4.26503,-13.70089 -6.39756,-20.55134"
       sodipodi:nodetypes="ccccccc"
       transform="matrix(0.36182743,0.1239397,0.18753432,-0.31137987,29.798276,121.98678)" />
    <path
       style="fill:#ff0000;stroke:#000000;stroke-width:1.79097;stroke-linejoin:round;stroke-dasharray:none;stroke-opacity:1"
       d="m 139.23193,170.06537 c 0.42527,7.35 0.85053,14.70001 3.00929,20.24041 2.15875,5.54039 6.05083,9.27104 11.39235,9.38897 5.34153,0.11793 12.13215,-3.3768 18.92291,-6.87159 -2.61826,-2.67589 -5.23648,-5.35172 -8.61573,-5.82472 -3.37926,-0.47299 -7.51928,1.25688 -10.65562,-1.30345 -3.13634,-2.56033 -5.26882,-9.41064 -7.40134,-16.26109"
       id="path16"
       inkscape:path-effect="#path-effect21"
       inkscape:original-d="m 139.23193,170.06537 c 0.42527,7.35 0.85053,14.70001 1.2758,22.05001 3.89224,3.73079 7.78432,7.46144 11.67648,11.19216 6.79089,-3.49486 20.37227,-10.48438 20.37227,-10.48438 0,0 -5.23648,-5.35172 -7.85479,-8.02766 -4.1402,1.72995 -8.28022,3.45982 -12.42034,5.18974 -2.13256,-6.85058 -4.26503,-13.70089 -6.39756,-20.55134"
       sodipodi:nodetypes="ccccccc"
       transform="matrix(0.40499209,-0.00284897,-0.04129864,-0.49237746,74.634809,183.87557)" />
    <ellipse
       style="fill:#ff0000;stroke:#000000;stroke-width:5.99998e-08;stroke-linejoin:round;stroke-dasharray:none;stroke-opacity:1"
       id="path21"
       cx="92.170052"
       cy="124.91763"
       rx="3.073868"
       ry="2.2112803" />
    <ellipse
       style="fill:#ff0000;stroke:#000000;stroke-width:5.99998e-08;stroke-linejoin:round;stroke-dasharray:none;stroke-opacity:1"
       id="ellipse21"
       cx="98.764656"
       cy="123.34407"
       rx="3.073868"
       ry="2.2112803" />
    <ellipse
       style="fill:#ff0000;stroke:#000000;stroke-width:5.99998e-08;stroke-linejoin:round;stroke-dasharray:none;stroke-opacity:1"
       id="ellipse22"
       cx="110.42905"
       cy="117.64803"
       rx="3.073868"
       ry="2.2112803" />
    <ellipse
       style="fill:#ff0000;stroke:#000000;stroke-width:5.99998e-08;stroke-linejoin:round;stroke-dasharray:none;stroke-opacity:1"
       id="ellipse23"
       cx="123.70683"
       cy="107.2108"
       rx="3.073868"
       ry="2.2112803" />
    <ellipse
       style="fill:#ff0000;stroke:#000000;stroke-width:5.99998e-08;stroke-linejoin:round;stroke-dasharray:none;stroke-opacity:1"
       id="ellipse24"
       cx="123.95583"
       cy="99.828964"
       rx="3.073868"
       ry="2.2112803" />
    <ellipse
       style="fill:#ff0000;stroke:#000000;stroke-width:5.99998e-08;stroke-linejoin:round;stroke-dasharray:none;stroke-opacity:1"
       id="ellipse25"
       cx="112.63694"
       cy="87.97773"
       rx="3.073868"
       ry="2.2112803" />
    <ellipse
       style="fill:#ff0000;stroke:#000000;stroke-width:5.99998e-08;stroke-linejoin:round;stroke-dasharray:none;stroke-opacity:1"
       id="ellipse26"
       cx="99.208435"
       cy="80.107056"
       rx="3.073868"
       ry="2.2112803" />
    <ellipse
       style="fill:#ff0000;stroke:#000000;stroke-width:5.99998e-08;stroke-linejoin:round;stroke-dasharray:none;stroke-opacity:1"
       id="ellipse27"
       cx="92.971672"
       cy="79.030205"
       rx="3.073868"
       ry="2.2112803" />
  </g>
</svg>
