<?xml version="1.0" encoding="UTF-8" standalone="no"?>
<!-- Created with Inkscape (http://www.inkscape.org/) -->

<svg
   width="213.45181mm"
   height="199.90286mm"
   viewBox="0 0 213.45181 199.90286"
   version="1.1"
   id="svg1"
   inkscape:version="1.3.2 (091e20ef0f, 2023-11-25)"
   sodipodi:docname="earth.svg"
   xmlns:inkscape="http://www.inkscape.org/namespaces/inkscape"
   xmlns:sodipodi="http://sodipodi.sourceforge.net/DTD/sodipodi-0.dtd"
   xmlns="http://www.w3.org/2000/svg"
   xmlns:svg="http://www.w3.org/2000/svg">
  <sodipodi:namedview
     id="namedview1"
     pagecolor="#ffffff"
     bordercolor="#000000"
     borderopacity="0.25"
     inkscape:showpageshadow="2"
     inkscape:pageopacity="0.0"
     inkscape:pagecheckerboard="0"
     inkscape:deskcolor="#d1d1d1"
     inkscape:document-units="mm"
     inkscape:zoom="0.57493959"
     inkscape:cx="367.86474"
     inkscape:cy="346.99298"
     inkscape:window-width="1920"
     inkscape:window-height="1011"
     inkscape:window-x="0"
     inkscape:window-y="0"
     inkscape:window-maximized="1"
     inkscape:current-layer="layer1" />
  <defs
     id="defs1">
    <inkscape:path-effect
       effect="bspline"
       id="path-effect16"
       is_visible="true"
       lpeversion="1.3"
       weight="33.333333"
       steps="2"
       helper_size="0"
       apply_no_weight="true"
       apply_with_weight="true"
       only_selected="false"
       uniform="false" />
    <inkscape:path-effect
       effect="bspline"
       id="path-effect10"
       is_visible="true"
       lpeversion="1.3"
       weight="33.333333"
       steps="2"
       helper_size="0"
       apply_no_weight="true"
       apply_with_weight="true"
       only_selected="false"
       uniform="false" />
  </defs>
  <g
     inkscape:label="Layer 1"
     inkscape:groupmode="layer"
     id="layer1"
     transform="translate(-8.578118,-72.974505)">
    <circle
       style="fill:#ff7f2a;stroke:#000000;stroke-width:5.55626e-08;stroke-linejoin:round"
       id="path1"
       cx="110.75673"
       cy="171.64835"
       r="62.5" />
    <circle
       style="fill:#0000ff;stroke:#000000;stroke-width:5.55626e-08;stroke-linejoin:round"
       id="circle10"
       cx="110.75673"
       cy="171.64835"
       r="62.5" />
    <path
       style="fill:#ffffff;fill-opacity:1;stroke:none;stroke-width:4.39999;stroke-linecap:round;stroke-linejoin:bevel;stroke-dasharray:none;stroke-opacity:1"
       d="m 83.65551,115.19168 14.388803,9.38089 18.425867,1.71605 23.87832,-9.8148 c -18.95622,-9.60898 -38.01459,-9.74929 -56.69299,-1.28214 z"
       id="path16"
       sodipodi:nodetypes="ccccc" />
    <path
       style="fill:#ffffff;fill-opacity:1;stroke:none;stroke-width:4.39999;stroke-linecap:round;stroke-linejoin:bevel;stroke-dasharray:none;stroke-opacity:1"
       d="m 83.752497,228.26335 14.388801,-22.61006 33.199032,-8.62336 9.10516,29.95128 c -18.95622,9.60898 -38.01459,9.74929 -56.692993,1.28214 z"
       id="path17"
       sodipodi:nodetypes="ccccc" />
    <path
       style="fill:#00ff00;fill-opacity:1;stroke:none;stroke-width:4.39999;stroke-linecap:round;stroke-linejoin:bevel;stroke-dasharray:none;stroke-opacity:1"
       d="m 98.103003,124.45853 18.713507,1.71599 0.93948,18.17512 -2.71492,12.80228 -13.28863,8.93129 c -5.873684,5.12114 -3.507582,2.77984 -1.68613,8.87232 0.2328,0.77868 3.22683,2.14764 2.62474,2.86559 -0.73999,-0.18978 -1.8884,0.82569 -2.49596,0.514 -5.192078,-2.66367 -3.084681,-3.44223 -5.438447,-8.71862 l -14.858565,-6.98799 -4.758528,6.39933 16.298141,21.68859 -13.77781,23.8115 -24.361925,-32.98345 18.002722,-10.0562 -7.923023,-11.34973 -10.275932,-12.77893 c 8.480734,-18.49352 19.379848,-26.14528 30.656078,-32.1064 z"
       id="path18"
       sodipodi:nodetypes="cccccscsccccccccccc" />
    <path
       style="fill:#00ff00;fill-opacity:1;stroke:none;stroke-width:4.39999;stroke-linecap:round;stroke-linejoin:bevel;stroke-dasharray:none;stroke-opacity:1"
       d="m 172.56867,161.22803 -26.2627,49.07071 -2.82907,-27.43602 -21.57741,1.87769 13.61554,-29.80329 -6.23452,-8.97321 10.99119,-29.44741 c 19.49054,10.27184 30.08883,29.68216 32.29697,44.71153 z"
       id="path19"
       sodipodi:nodetypes="cccccccc" />
  </g>
</svg>
