<?xml version="1.0" encoding="UTF-8" standalone="no"?>
<!-- Created with Inkscape (http://www.inkscape.org/) -->

<svg
   width="125mm"
   height="125.36763mm"
   viewBox="0 0 125 125.36763"
   version="1.1"
   id="svg1"
   inkscape:version="1.3.2 (091e20ef0f, 2023-11-25)"
   sodipodi:docname="saturn.svg"
   xmlns:inkscape="http://www.inkscape.org/namespaces/inkscape"
   xmlns:sodipodi="http://sodipodi.sourceforge.net/DTD/sodipodi-0.dtd"
   xmlns="http://www.w3.org/2000/svg"
   xmlns:svg="http://www.w3.org/2000/svg">
  <sodipodi:namedview
     id="namedview1"
     pagecolor="#ffffff"
     bordercolor="#000000"
     borderopacity="0.25"
     inkscape:showpageshadow="2"
     inkscape:pageopacity="0.0"
     inkscape:pagecheckerboard="0"
     inkscape:deskcolor="#d1d1d1"
     inkscape:document-units="mm"
     inkscape:zoom="1.237033"
     inkscape:cx="142.68011"
     inkscape:cy="236.45287"
     inkscape:window-width="1920"
     inkscape:window-height="1011"
     inkscape:window-x="0"
     inkscape:window-y="0"
     inkscape:window-maximized="1"
     inkscape:current-layer="layer1" />
  <defs
     id="defs1">
    <inkscape:path-effect
       effect="bspline"
       id="path-effect16"
       is_visible="true"
       lpeversion="1.3"
       weight="33.333333"
       steps="2"
       helper_size="0"
       apply_no_weight="true"
       apply_with_weight="true"
       only_selected="false"
       uniform="false" />
    <inkscape:path-effect
       effect="bspline"
       id="path-effect10"
       is_visible="true"
       lpeversion="1.3"
       weight="33.333333"
       steps="2"
       helper_size="0"
       apply_no_weight="true"
       apply_with_weight="true"
       only_selected="false"
       uniform="false" />
  </defs>
  <g
     inkscape:label="Layer 1"
     inkscape:groupmode="layer"
     id="layer1"
     transform="translate(-48.256729,-109.0437)">
    <circle
       style="fill:#ff7f2a;stroke:#000000;stroke-width:5.55626e-08;stroke-linejoin:round"
       id="path1"
       cx="110.75673"
       cy="171.64835"
       r="48.432652" />
    <circle
       style="fill:#e3dbdb;stroke:#000000;stroke-width:5.55626e-08;stroke-linejoin:round"
       id="circle10"
       cx="110.75673"
       cy="171.64835"
       r="48.432652" />
    <path
       id="rect5"
       style="fill:#ffeeaa;fill-opacity:1;stroke-width:1.7;stroke-linecap:round;stroke-linejoin:bevel"
       d="M 110.75677,123.21589 A 48.432652,48.432652 0 0 0 74.104182,139.99805 H 147.39776 A 48.432652,48.432652 0 0 0 110.75677,123.21589 Z" />
    <path
       id="rect6"
       style="fill:#b3b3b3;fill-opacity:1;stroke-width:1.7;stroke-linecap:round;stroke-linejoin:bevel"
       d="m 62.57476,175.15495 a 48.432652,48.432652 0 0 0 2.209696,11.47456 H 156.7291 a 48.432652,48.432652 0 0 0 2.20969,-11.47456 z" />
    <path
       id="rect7"
       style="fill:#e9afaf;fill-opacity:1;stroke-width:1.7;stroke-linecap:round;stroke-linejoin:bevel"
       d="m 68.386925,194.8556 a 48.432652,48.432652 0 0 0 14.50358,16.27798 h 55.732545 a 48.432652,48.432652 0 0 0 14.50358,-16.27798 z" />
    <path
       id="path8"
       style="fill:none;fill-opacity:1;stroke:#ffffff;stroke-width:1.7;stroke-linecap:square;stroke-linejoin:bevel;stroke-opacity:1"
       d="M 154.08035 149.98834 A 61.650002 30.297726 0 0 1 172.40673 171.5437 L 172.40673 171.5437 A 61.650002 30.297726 0 0 1 110.75673 201.84143 A 61.650002 30.297726 0 0 1 49.106728 171.5437 A 61.650002 30.297726 0 0 1 67.41621 149.99654 " />
    <path
       id="circle8"
       style="fill:none;fill-opacity:1;stroke:#000000;stroke-width:1.7;stroke-linecap:square;stroke-linejoin:bevel;stroke-opacity:1"
       d="M 154.70528 151.2738 A 60.271481 29.620255 0 0 1 171.02821 171.5437 L 171.02821 171.5437 A 60.271481 29.620255 0 0 1 110.75673 201.16396 A 60.271481 29.620255 0 0 1 50.485249 171.5437 A 60.271481 29.620255 0 0 1 66.704961 151.32799 " />
    <path
       id="circle9"
       style="fill:none;fill-opacity:1;stroke:#a0a1cb;stroke-width:1.7;stroke-linecap:square;stroke-linejoin:bevel;stroke-opacity:1"
       d="M 155.42135 152.87579 A 58.633041 28.815048 0 0 1 169.38977 171.5437 L 169.38977 171.5437 A 58.633041 28.815048 0 0 1 110.75673 200.35875 A 58.633041 28.815048 0 0 1 52.123688 171.5437 A 58.633041 28.815048 0 0 1 65.968215 152.94762 " />
    <path
       id="circle11"
       style="fill:none;fill-opacity:1;stroke:#6e5c66;stroke-width:1.7;stroke-linecap:square;stroke-linejoin:bevel;stroke-opacity:1"
       d="M 156.14583 154.7101 A 56.8634 27.945362 0 0 1 167.62013 171.5437 L 167.62013 171.5437 A 56.8634 27.945362 0 0 1 110.75673 199.48906 A 56.8634 27.945362 0 0 1 53.89333 171.5437 A 56.8634 27.945362 0 0 1 65.33976 154.72827 " />
    <path
       id="rect3"
       style="fill:#e9c6af;fill-opacity:1;stroke-width:1.7;stroke-linecap:round;stroke-linejoin:bevel"
       d="m 67.597633,149.64879 c -2.552247,5.04592 -4.636315,11.54299 -4.955196,17.54716 h 96.335203 c -0.35787,-5.97865 -2.27904,-11.94833 -5.061,-17.54645 z"
       sodipodi:nodetypes="ccccc" />
  </g>
</svg>
